<svg xmlns="http://www.w3.org/2000/svg" viewBox="0 0 3174 3174" width="3174" height="3174">
  <g transform="translate(307,307) scale(7.1)">
    <path d="M297.25,100.42l-7.52-7.52c-6.32-6.33-16.37-6.94-23.42-1.43-17.01,13.29-50.17,40.7-92.3,82.82-42.07,42.07-69.33,75.07-82.56,92.02-5.5,7.05-4.89,17.09,1.43,23.41l7.53,7.53c21.8,21.8,38.39,33.76,55.08,35.53,16.5,1.74,31.7-6.74,50.75-25.79,9.77-9.77,17.23-18.52,20.92-28.49,3.93-10.59,3.58-22.12-2.75-36.75-6.13-14.16-8.48-21.95-6.55-23.88s9.72.42,23.85,6.55c14.64,6.33,26.17,6.69,36.76,2.77,9.97-3.7,18.73-11.16,28.49-20.93,19.05-19.05,27.54-34.26,25.79-50.76-1.78-16.69-13.73-33.28-35.53-55.08ZM298.48,197.75c-8.77,8.77-16.24,15.21-24.17,18.16-5.5,2.04-13.64,3.6-27.8-2.53-7.93-3.44-13.66-5.61-18.03-6.84-3.48-.98-12.71-3.58-19.12,2.83-6.4,6.4-3.8,15.64-2.82,19.12,1.23,4.38,3.4,10.11,6.84,18.05,6.12,14.13,4.56,22.27,2.51,27.79-2.94,7.93-9.38,15.39-18.15,24.16-16.9,16.9-29.16,23.58-40.98,22.33-12.37-1.31-26.68-10.9-47.85-32.07l-7.53-7.53c-2.02-2.02-2.22-5.24-.45-7.5,12.41-15.9,39.52-48.85,81.59-90.92,42.11-42.11,75.21-69.36,91.2-81.85,2.26-1.76,5.48-1.57,7.5.45l7.52,7.53c21.16,21.16,30.75,35.47,32.07,47.84,1.25,11.82-5.43,24.08-22.34,40.98Z" fill="#C9A96E"></path>
    <path d="M284.12,113.54l-6.97-6.98c-16.08,12.6-48.65,39.5-90.01,80.86-41.31,41.31-68.07,73.73-80.59,89.72l6.99,6.99c20.02,20.02,33.16,29.05,43.91,30.19,6.81.72,16.37-1.15,35.67-20.45,7.06-7.06,13.97-14.6,16.64-21.82,1.72-4.64,2.78-10.99-2.38-22.93-6.98-16.13-14.2-32.82-2.64-44.38,11.58-11.58,28.24-4.35,44.34,2.63,11.97,5.18,18.32,4.12,22.95,2.4,7.23-2.68,14.76-9.59,21.82-16.65,19.31-19.31,21.18-28.88,20.46-35.67-1.15-10.77-10.18-23.91-30.2-43.93ZM289.61,188.88c-6.27,6.27-13.5,12.98-19.66,15.26-3.69,1.37-8.48,2.04-18.47-2.28-8.32-3.61-16.93-7.34-25.3-8.69-10.49-1.7-19.13.77-25.69,7.33-6.55,6.55-9.01,15.19-7.32,25.68,1.35,8.37,5.08,17,8.69,25.33,4.31,9.95,3.63,14.75,2.26,18.45-2.28,6.15-8.99,13.39-15.26,19.65-8.21,8.21-15.25,13.79-20.93,16.6-4.66,2.3-7.6,2.37-9.85,2.13-9.15-.97-21.58-9.75-40.3-28.47l-3.21-3.2c13.39-16.8,38.96-47.15,76.81-85,37.91-37.91,68.4-63.6,85.29-77.07l3.19,3.19c18.71,18.71,27.5,31.15,28.47,40.31.34,3.26,1.15,10.9-18.73,30.78Z" fill="#C9A96E"></path>
    <path d="M65.41,104.74l23.79,23.79c1.35,1.35,2.91,2.36,4.57,3.04,4.99,2.02,10.93,1.01,14.98-3.04l19.78-19.78c4.05-4.05,5.06-9.99,3.04-14.98-.67-1.66-1.69-3.22-3.04-4.57l-23.78-23.78c41.47-23.26,97.22-16.93,139.07,17.34,1.09.9,2.66.92,3.76.03l.05-.04c1.48-1.19,1.48-3.43,0-4.63-12.85-10.52-26.95-18.52-41.58-23.95-1-.37-2-.73-3.01-1.08-6.03-2.08-12.13-3.73-18.26-4.95-3.07-.61-6.14-1.11-9.21-1.5-4.1-.52-8.2-.85-12.28-.98-1.02-.03-2.04-.05-3.06-.06-6.11-.05-12.18.34-18.16,1.17-1,.14-1.99.29-2.98.45-2.97.49-5.92,1.09-8.84,1.8-4.86,1.18-9.63,2.67-14.28,4.48-4.65,1.8-9.19,3.91-13.57,6.33-.7.38-1.39.78-2.07,1.18l-4.79-4.79c20.42-12.32,44.58-18.28,70.23-17.03,32.23,1.57,63.34,14.32,88.76,36.16.84.72,2,.9,3.04.52,1.12-.41,2.31-.7,3.51-.89,3.79-.62,5.25-5.3,2.36-7.83-.05-.05-.1-.09-.16-.14-20.98-18.27-45.24-30.34-70.13-36.09-1.2-.28-2.39-.54-3.59-.79-3.7-.76-7.41-1.39-11.12-1.87-1.45-.19-2.9-.36-4.36-.51-2.57-.26-5.14-.46-7.71-.58-3.51-.17-7.02-.22-10.51-.14-2.33.05-4.65.16-6.96.33-2.31.17-4.62.39-6.91.66-1.15.14-2.29.29-3.43.46-2.28.33-4.56.72-6.82,1.17-1.13.22-2.26.46-3.38.71-2.24.5-4.48,1.06-6.69,1.68-3.32.92-6.6,1.97-9.84,3.15-2.16.79-4.3,1.63-6.41,2.53-1.06.45-2.11.91-3.16,1.39-2.09.96-4.16,1.97-6.21,3.04-3.28,1.71-6.49,3.58-9.63,5.59-5.3-3.1-12.21-2.4-16.75,2.15l-19.78,19.78c-4.54,4.54-5.25,11.45-2.15,16.75-12.03,18.8-18.79,40.26-20.38,62.47-.17,2.31-.27,4.63-.33,6.96-.08,3.49-.03,7,.14,10.51.06,1.17.13,2.34.21,3.51.26,3.51.64,7.03,1.14,10.55.34,2.34.73,4.68,1.18,7.02.67,3.51,1.47,7,2.39,10.49.31,1.16.63,2.32.96,3.48.67,2.31,1.39,4.62,2.17,6.91.78,2.3,1.62,4.58,2.51,6.85.45,1.14.9,2.27,1.38,3.4.95,2.26,1.95,4.51,3,6.74,3.69,7.81,8.06,15.42,13.09,22.75,1.44,2.09,2.93,4.16,4.48,6.21.77,1.02,1.56,2.04,2.36,3.05,1.6,2.02,3.26,4.01,4.97,5.98.04.05.08.09.12.14,2.52,2.89,7.21,1.43,7.82-2.36.19-1.19.48-2.38.89-3.51.38-1.04.21-2.2-.52-3.04-21.84-25.42-34.58-56.52-36.16-88.75-1.25-25.65,4.7-49.81,17.03-70.23l4.79,4.79c-25.42,43.75-19.15,103.03,17.1,147.3,1.2,1.46,3.44,1.46,4.63-.02.91-1.13.89-2.74-.03-3.86-34.22-41.84-40.53-97.57-17.29-139.01ZM58.4,80.72c-.7-.7-.7-1.84,0-2.54l19.78-19.78c.7-.7,1.84-.7,2.54,0l39.3,39.3c.7.7.7,1.84,0,2.54l-19.78,19.78c-.7.7-1.84.7-2.54,0l-39.3-39.3Z" fill="#C9A96E"></path>
  </g>
</svg>